<svg width="72.000000" height="72.000000" viewBox="0 0 72 72" fill="none" xmlns="http://www.w3.org/2000/svg" xmlns:xlink="http://www.w3.org/1999/xlink">
	<desc>
			Created with Pixso.
	</desc>
	<defs>
		<linearGradient x1="0.000004" y1="0.000000" x2="72.000000" y2="72.000000" id="paint_linear_1893_32_0" gradientUnits="userSpaceOnUse">
			<stop offset="0.004999" stop-color="#FF732D"/>
			<stop offset="0.501534" stop-color="#E83511"/>
			<stop offset="1.000000" stop-color="#F6421E"/>
		</linearGradient>
	</defs>
	<rect id="矩形 1" rx="16.000616" width="72.000000" height="72.000000" fill="#F85835" fill-opacity="1.000000"/>
	<rect id="矩形 1" rx="16.000616" width="72.000000" height="72.000000" fill="url(#paint_linear_1893_32_0)" fill-opacity="0"/>
	<path id="合并" d="M38.8193 17.5955C35.978 21.5833 32.2173 27.0996 31.2869 29.5862C29.7361 33.718 34.8813 35.7339 34.8813 35.7339C34.8813 35.7339 33.5466 35.7173 31.4199 35.7339C30.301 35.7451 28.2185 35.6731 26.9282 35.5015C24.4414 35.1689 22.5085 34.6541 20.8745 32.9592C16.7153 28.6448 22.5693 23.3777 22.5693 23.3777L37.2739 9.02197C37.4956 8.80591 37.8501 8.80054 38.0659 9.01636C40.4199 11.2871 40.7134 14.937 38.8193 17.5955ZM40.0488 39.2673C38.4814 41.6545 35.1362 46.1018 32.4058 49.6797C29.7805 53.1135 28.8943 57.5664 30.063 61.7205C30.3066 62.5789 31.3865 62.8723 32.0291 62.2466C34.9534 59.4163 41.6882 52.8921 45.5596 49.0095C45.9446 48.6235 46.3262 48.2454 46.7007 47.874C51.24 43.3738 54.7678 39.8762 51.386 35.8447C49.874 34.0447 47.343 33.5627 44.8616 33.2305C43.5657 33.0532 41.1787 33.0588 40.0654 33.0698C38.1333 33.085 37.6045 32.9355 37.5239 32.908C37.5161 32.9053 37.5122 32.9038 37.5122 32.9038C37.5122 32.9038 37.5156 32.9053 37.5239 32.908C37.8005 33.0112 42.8723 34.9729 40.0488 39.2673Z" clip-rule="evenodd" fill="#FFFFFF" fill-opacity="1.000000" fill-rule="evenodd"/>
</svg>
